{"title":"The Greatest Showman (2017) HDTS AC3","magnet":"magnet:?xt=urn:btih:465b9bb9e79e1cb9a3cb0beba3cfc00ff869e685&dn=The+Greatest+Showman+%282017%29+HDTS+AC3&tr=udp%3A%2F%2Ftracker.leechers-paradise.org%3A6969&tr=udp%3A%2F%2Fzer0day.ch%3A1337&tr=udp%3A%2F%2Fopen.demonii.com%3A1337&tr=udp%3A%2F%2Ftracker.coppersurfer.tk%3A6969&tr=udp%3A%2F%2Fexodus.desync.com%3A6969","uploader":"makintos13","categoryP":"video","categoryS":"movies","size":"1468000256","seeders":"489","leechers":"454","description":"screens:\r\n <a href=\"\nhttps://imgmak.com/mrH\" rel=\"nofollow\" target=\"_NEW\">\nhttps://imgmak.com/mrH</a>\r\n <a href=\"\nhttps://imgmak.com/mrv\" rel=\"nofollow\" target=\"_NEW\">\nhttps://imgmak.com/mrv</a>\r\n <a href=\"\nhttps://imgmak.com/mry\" rel=\"nofollow\" target=\"_NEW\">\nhttps://imgmak.com/mry</a>\r\n <a href=\"\nhttps://imgmak.com/mr6\" rel=\"nofollow\" target=\"_NEW\">\nhttps://imgmak.com/mr6</a>\r\n <a href=\"\nhttps://imgmak.com/mr9\" rel=\"nofollow\" target=\"_NEW\">\nhttps://imgmak.com/mr9</a>\r\n <a href=\"\nhttps://imgmak.com/mrM\" rel=\"nofollow\" target=\"_NEW\">\nhttps://imgmak.com/mrM</a>\r\n <a href=\"\nhttps://imgmak.com/mrO\" rel=\"nofollow\" target=\"_NEW\">\nhttps://imgmak.com/mrO</a>\r\n <a href=\"\nhttps://imgmak.com/mrP\" rel=\"nofollow\" target=\"_NEW\">\nhttps://imgmak.com/mrP</a>\r\n <a href=\"\nhttps://imgmak.com/mrY\" rel=\"nofollow\" target=\"_NEW\">\nhttps://imgmak.com/mrY</a>\r\n\r\nThe Greatest Showman (2017) HDTS AC3\r\n\r\n\r\nFormat : AVI \r\nFormat/Info : Audio Video Interleave \r\nFile size : 1.37 GiB \r\nDuration : 1 h 37 min \r\nOverall bit rate : 2 013 kb/s \r\nWriting application : VirtualDubMod 1.5.10.2 (build 2540/release) \r\nWriting library : VirtualDubMod build 2540/release \r\n\r\nVideo \r\nID : 0 \r\nFormat : MPEG-4 Visual \r\nFormat profile : Advanced <a href=\"/cdn-cgi/l/email-protection\" class=\"__cf_email__\" data-cfemail=\"9ac9f3f7eaf6ffdad6af\">[email&#xA0;protected]</a> \r\nFormat settings : BVOP2 \r\nFormat settings, BVOP : 2 \r\nFormat settings, QPel : No \r\nFormat settings, GMC : No warppoints \r\nFormat settings, Matrix : Default (MPEG) \r\nCodec ID : XVID \r\nCodec ID/Hint : XviD \r\nDuration : 1 h 37 min \r\nBit rate : 1 620 kb/s \r\nWidth : 720 pixels \r\nHeight : 304 pixels \r\nDisplay aspect ratio : 2.35:1 \r\nFrame rate : 23.976 (24000/1001) FPS \r\nColor space : YUV \r\nChroma subsampling : 4:2:0 \r\nBit depth : 8 bits \r\nScan type : Progressive \r\nCompression mode : Lossy \r\nBits/(Pixel*Frame) : 0.309 \r\nStream size : 1.10 GiB (80%) \r\nWriting library : XviD 1.2.1 (UTC 2008-12-04) \r\n\r\nAudio \r\nID : 1 \r\nFormat : AC-3 \r\nFormat/Info : Audio Coding 3 \r\nFormat settings, Endianness : Big \r\nCodec ID : 2000 \r\nDuration : 1 h 37 min \r\nBit rate mode : Constant \r\nBit rate : 384 kb/s \r\nChannel(s) : 2 channels\r\nlang       : rus \r\nChannel positions : Front: L R \r\nSampling rate : 48.0 kHz \r\nFrame rate : 31.250 FPS (1536 SPF) \r\nBit depth : 16 bits \r\nCompression mode : Lossy \r\nStream size : 267 MiB (19%) \r\nAlignment : Split accross interleaves \r\nInterleave, duration : 42 ms (1.00 video frame) \r\nInterleave, preload duration : 500 ms","last_updated":"2018-01-01T12:03:16.766Z","parsed":{"xt":"urn:btih:465b9bb9e79e1cb9a3cb0beba3cfc00ff869e685","dn":"The Greatest Showman (2017) HDTS AC3","tr":["udp://exodus.desync.com:6969","udp://open.demonii.com:1337","udp://tracker.coppersurfer.tk:6969","udp://tracker.leechers-paradise.org:6969","udp://zer0day.ch:1337"],"infoHash":"465b9bb9e79e1cb9a3cb0beba3cfc00ff869e685","infoHashBuffer":{"type":"Buffer","data":[70,91,155,185,231,158,28,185,163,203,11,235,163,207,192,15,248,105,230,133]},"name":"The Greatest Showman (2017) HDTS AC3","announce":["udp://exodus.desync.com:6969","udp://open.demonii.com:1337","udp://tracker.coppersurfer.tk:6969","udp://tracker.leechers-paradise.org:6969","udp://zer0day.ch:1337"],"urlList":[]}}